<svg width="720" height="720" viewBox="0 0 720 720" fill="none" xmlns="http://www.w3.org/2000/svg">
      <defs>
        <filter id="softShadow" x="-20%" y="-20%" width="140%" height="150%">
          <feDropShadow dx="0" dy="28" stdDeviation="26" flood-color="#111311" flood-opacity=".16"/>
        </filter>
        <radialGradient id="ballShade" cx="35%" cy="28%" r="80%">
          <stop offset="0" stop-color="#ffffff"/>
          <stop offset="1" stop-color="#d7d7d7"/>
        </radialGradient>
      </defs>
      <rect width="720" height="720" rx="42" fill="#f4f3ee"/>
      <circle cx="590" cy="100" r="130" fill="#d7ff3f" opacity=".30"/>
      <circle cx="110" cy="655" r="170" fill="#111311" opacity=".035"/>
      <text x="60" y="76" font-family="Manrope, Arial, sans-serif" font-size="24" font-weight="900" letter-spacing="7" fill="#111311">JOOLA</text>
      <rect x="54" y="102" width="122" height="42" rx="21" fill="#ffffff"/>
      <text x="76" y="130" font-family="Manrope, Arial, sans-serif" font-size="17" font-weight="900" fill="#111311">Grip</text>
      
        <g transform="translate(120 215)" filter="url(#softShadow)">
          <path d="M22 112 C96 36 220 20 312 58 C376 86 438 114 510 128 C535 133 548 184 522 203 C466 242 92 238 38 210 C2 192 -8 144 22 112Z" fill="#f6f4ec" stroke="#111311" stroke-width="18"/>
          <path d="M154 90 H292" stroke="#111311" stroke-width="10" stroke-linecap="round" opacity=".35"/>
          <path d="M120 128 H340" stroke="#fff" stroke-width="8" stroke-linecap="round" opacity=".65"/>
        </g>
        
      <text font-family="Manrope, Arial, sans-serif" font-size="28" font-weight="900" fill="#111311"><tspan x="60" y="540">Stiga Court Shoes</tspan></text>
      <text x="60" y="668" font-family="Manrope, Arial, sans-serif" font-size="21" font-weight="800" fill="#74776f">Footwear</text>
      <text x="660" y="668" text-anchor="end" font-family="Manrope, Arial, sans-serif" font-size="24" font-weight="900" fill="#111311">₹6,499</text>
    </svg>